<svg xmlns="http://www.w3.org/2000/svg" version="1.1" xmlns:xlink="http://www.w3.org/1999/xlink" xmlns:svgjs="http://svgjs.dev/svgjs" width="128" height="128" viewBox="0 0 128 128"><g transform="matrix(0.8046875,0,0,0.8046875,12.735090384364476,12.760752631578946)"><svg viewBox="0 0 95 95" data-background-color="#ffffff" preserveAspectRatio="xMidYMid meet" height="128" width="128" xmlns="http://www.w3.org/2000/svg" xmlns:xlink="http://www.w3.org/1999/xlink"><g id="tight-bounds" transform="matrix(1,0,0,1,-0.21683093703519773,-0.24049999999999727)"><svg viewBox="0 0 95.4336618740704 95.481" height="95.481" width="95.4336618740704"><g><svg viewBox="0 0 95.4336618740704 95.481" height="95.481" width="95.4336618740704"><g><svg viewBox="0 0 95.4336618740704 95.481" height="95.481" width="95.4336618740704"><g><svg viewBox="0 0 95.4336618740704 95.481" height="95.481" width="95.4336618740704"><g><svg viewBox="0 0 95.4336618740704 95.481" height="95.481" width="95.4336618740704"><g><svg viewBox="0 0 95.4336618740704 95.481" height="95.481" width="95.4336618740704"><g><svg xmlns:dc="http://purl.org/dc/elements/1.1/" xmlns:cc="http://creativecommons.org/ns#" xmlns:rdf="http://www.w3.org/1999/02/22-rdf-syntax-ns#" xmlns:svg="http://www.w3.org/2000/svg" xmlns="http://www.w3.org/2000/svg" xmlns:sodipodi="http://sodipodi.sourceforge.net/DTD/sodipodi-0.dtd" xmlns:inkscape="http://www.inkscape.org/namespaces/inkscape" preserveAspectRatio="xMidYMid" viewBox="0 0 63 63.03125" version="1.1" x="0" y="0" height="95.481" width="95.4336618740704" class="icon-icon-0" data-fill-palette-color="accent" id="icon-0"><path d="M9.5 0C4.253 0 0 4.25 0 9.5L0 53.531C0 58.781 4.253 63.031 9.5 63.031L53.5 63.031C58.747 63.031 63 58.781 63 53.531L63 9.5C63 4.25 58.747 0 53.5 0L9.5 0zM10 3L17 3 17 60.031 10 60.031 10 3zM20 3L35 3 35 60.031 20 60.031 20 3zM38 3L53.5 3C57.09 3 60 5.908 60 9.5L60 53.531C60 57.123 57.09 60.031 53.5 60.031L38 60.031 38 3zM6.969 3.5C6.978 3.496 6.991 3.504 7 3.5L7 59.531C4.653 58.55 3 56.236 3 53.531L3 9.5C3 6.806 4.636 4.487 6.969 3.5z" fill="#010c80" fill-rule="evenodd" data-fill-palette-color="accent"></path></svg></g></svg></g></svg></g></svg></g></svg></g></svg></g><defs></defs></svg><rect width="95.4336618740704" height="95.481" fill="none" stroke="none" visibility="hidden"></rect></g></svg></g></svg>