<svg xmlns="http://www.w3.org/2000/svg" version="1.1" xmlns:xlink="http://www.w3.org/1999/xlink" xmlns:svgjs="http://svgjs.dev/svgjs" width="2000" height="732" viewBox="0 0 2000 732"><g transform="matrix(1,0,0,1,-1.2121212121212466,0.6549263436775163)"><svg viewBox="0 0 396 145" data-background-color="#ffffff" preserveAspectRatio="xMidYMid meet" height="732" width="2000" xmlns="http://www.w3.org/2000/svg" xmlns:xlink="http://www.w3.org/1999/xlink"><g id="tight-bounds" transform="matrix(1,0,0,1,0.2400000000000091,-0.12973267736781224)"><svg viewBox="0 0 395.52 145.25946535473562" height="145.25946535473562" width="395.52"><g><svg viewBox="0 0 737.0481200502232 270.68976501620256" height="145.25946535473562" width="395.52"><g><rect width="16.873523701656783" height="270.68976501620256" x="285.50149829732436" y="0" fill="#010c80" opacity="1" stroke-width="0" stroke="transparent" fill-opacity="1" class="rect-o-0" data-fill-palette-color="primary" rx="1%" id="o-0" data-palette-color="#010c80"></rect></g><g transform="matrix(1,0,0,1,346.54655001378944,0.6733576244184007)"><svg viewBox="0 0 390.50157003643375 269.34304976736576" height="269.34304976736576" width="390.50157003643375"><g><svg viewBox="0 0 390.50157003643375 269.34304976736576" height="269.34304976736576" width="390.50157003643375"><g><svg viewBox="0 0 390.50157003643375 198.764" height="198.764" width="390.50157003643375"><g transform="matrix(1,0,0,1,0,0)"><svg width="390.50157003643375" viewBox="0 -29.5 100.5 48.15416717529297" height="198.764" data-palette-color="#010c80"><svg></svg><g class="undefined-text-0" data-fill-palette-color="primary" id="text-0"><path xmlns="http://www.w3.org/2000/svg" d="M1.5 0h-1.5v-29.5h1.5zM4.5 0h-1.5v-29.5h1.5zM7.5 0h-1.5v-29.5h1.5zM13.5 0h-4.5v-29.5h4.5zM24 0h-4.5v-29.5h4.5zM16.3 18.65h-0.75c-1.2 0.033-2.033-0.133-2.5-0.5v0c-0.5-0.4-0.75-1.083-0.75-2.05v0c-0.633-0.1-1.233-0.383-1.8-0.85v0c-0.567-0.467-1.017-1.117-1.35-1.95v0c-0.333-0.867-0.5-1.9-0.5-3.1v0c0-1.433 0.2-2.583 0.6-3.45v0c0.433-0.9 0.967-1.55 1.6-1.95v0c0.633-0.367 1.267-0.55 1.9-0.55v0c0.767 0 1.467 0.2 2.1 0.6v0c0.633 0.433 1.133 1.1 1.5 2v0c0.367 0.9 0.533 2 0.5 3.3v0c0 1.733-0.283 3.083-0.85 4.05v0c-0.567 1-1.417 1.633-2.55 1.9v0c0 0.433 0.117 0.767 0.35 1v0c0.2 0.233 0.533 0.35 1 0.35v0l1.5-0.05zM12.85 14.95v0c0.467 0 0.9-0.167 1.3-0.5v0c0.433-0.3 0.783-0.783 1.05-1.45v0c0.267-0.633 0.4-1.467 0.4-2.5v0c0-1.3-0.15-2.333-0.45-3.1v0c-0.267-0.733-0.617-1.25-1.05-1.55v0c-0.433-0.333-0.883-0.5-1.35-0.5v0c-0.9 0-1.6 0.45-2.1 1.35v0c-0.5 0.9-0.75 1.983-0.75 3.25v0c0 1.5 0.267 2.7 0.8 3.6v0c0.533 0.933 1.25 1.4 2.15 1.4zM30 0h-4.5v-29.5h4.5zM33 0h-1.5v-29.5h1.5zM36 0h-1.5v-29.5h1.5zM42 0h-4.5v-29.5h4.5zM49.5 0h-1.5v-29.5h1.5zM34.65 15.95v-11.6h3.4c1.333 0 2.3 0.3 2.9 0.9v0c0.633 0.567 0.95 1.383 0.95 2.45v0c0 0.667-0.217 1.3-0.65 1.9v0c-0.433 0.6-1 1-1.7 1.2v0l2.7 5.15h-1.45l-2.6-5.1h-2.25v5.1zM35.95 9.7h2.25c0.8 0 1.4-0.183 1.8-0.55v0c0.367-0.333 0.55-0.817 0.55-1.45v0c0-0.633-0.183-1.15-0.55-1.55v0c-0.4-0.367-1-0.55-1.8-0.55v0h-2.25zM52.5 0h-1.5v-29.5h1.5zM58.5 0h-4.5v-29.5h4.5zM64.5 0h-4.5v-29.5h4.5zM72 0h-1.5v-29.5h1.5zM75 0h-1.5v-29.5h1.5zM60.55 15.95v-11.6h6.65v1.15h-5.35v3.65h4.35v1.1h-4.35v5.7zM81 0h-4.5v-29.5h4.5zM88.5 0h-1.5v-29.5h1.5zM91.5 0h-1.5v-29.5h1.5zM94.5 0h-1.5v-29.5h1.5zM100.5 0h-4.5v-29.5h4.5zM89.25 16.15v0c-1.2 0-2.117-0.367-2.75-1.1v0c-0.633-0.733-0.95-1.767-0.95-3.1v0-7.6h1.45v0.15c-0.1 0.067-0.15 0.15-0.15 0.25v0c-0.033 0.067-0.05 0.217-0.05 0.45v0 6.75c0 1 0.2 1.767 0.6 2.3v0c0.367 0.533 1 0.8 1.9 0.8v0c0.867 0 1.5-0.267 1.9-0.8v0c0.4-0.533 0.6-1.317 0.6-2.35v0-7.55h1.25v7.55c0 1.433-0.333 2.5-1 3.2v0c-0.667 0.7-1.6 1.05-2.8 1.05z" fill="#010c80" fill-rule="nonzero" stroke="none" stroke-width="1" stroke-linecap="butt" stroke-linejoin="miter" stroke-miterlimit="10" stroke-dasharray="" stroke-dashoffset="0" font-family="none" font-weight="none" font-size="none" text-anchor="none" style="mix-blend-mode: normal" data-fill-palette-color="primary" opacity="1"></path></g></svg></g></svg></g><g transform="matrix(1,0,0,1,0,242.93552801480834)"><svg viewBox="0 0 229.26347176839022 26.40752175255745" height="26.40752175255745" width="229.26347176839022"><g transform="matrix(1,0,0,1,0,0)"><svg width="229.26347176839022" viewBox="2.440000057220459 -35.060001373291016 416.8800048828125 48.02000045776367" height="26.40752175255745" data-palette-color="#010c80"><path d="M13.89-16.43L2.44-34.69 7.35-34.69 16.19-20.36 25.22-34.69 29.86-34.69 18.04-16.43 18.04 0 13.89 0 13.89-16.43ZM45.75-24.58L45.75-24.58Q50.75-24.58 53.99-21.39 57.22-18.19 57.22-12.55L57.22-12.55Q57.22-6.57 53.92-3.04 50.61 0.49 45.36 0.49L45.36 0.49Q40.35 0.49 37.18-2.82 34.01-6.13 34.01-11.79L34.01-11.79Q34.01-17.63 37.24-21.11 40.48-24.58 45.75-24.58ZM45.41-21.17L45.41-21.17Q42.4-21.17 40.16-18.85 37.91-16.53 37.91-12.48L37.91-12.48Q37.91-8.45 40.11-5.69 42.31-2.93 45.8-2.93L45.8-2.93Q49.02-2.93 51.17-5.37 53.32-7.81 53.32-11.74L53.32-11.74Q53.32-13.99 52.62-15.82 51.93-17.65 50.79-18.8 49.66-19.95 48.26-20.56 46.87-21.17 45.41-21.17ZM80.73-4.98L80.73-24.12 84.74-24.12 84.74 0 81.93 0 81.07-2.03Q76.46 0.49 72.55 0.49L72.55 0.49Q70.58 0.49 69.11-0.13 67.65-0.76 66.84-1.68 66.04-2.61 65.55-4.04 65.06-5.47 64.92-6.76 64.79-8.06 64.79-9.72L64.79-9.72 64.79-24.12 68.79-24.12 68.79-9.42Q68.79-3.1 74.29-3.1L74.29-3.1Q77.12-3.1 80.73-4.98L80.73-4.98ZM96.33-24.12L97.09-22.31Q100.14-24.58 103.83-24.58L103.83-24.58Q106.36-24.58 108.44-23.63L108.44-23.63 107.22-20.43Q105.31-21.17 103.26-21.17L103.26-21.17Q100.21-21.17 97.53-19.48L97.53-19.48 97.53 0 93.52 0 93.52-24.12 96.33-24.12ZM140.86-24.12L145.01-24.12 136.54 0 132.38 0 123.94-24.12 128.33-24.12 134.58-3.98 140.86-24.12ZM161.36-24.58L161.36-24.58Q163.12-24.58 164.52-24.16 165.93-23.73 166.86-23.07 167.78-22.41 168.45-21.35 169.13-20.29 169.48-19.3 169.83-18.31 170.03-16.92 170.22-15.53 170.27-14.5 170.32-13.48 170.32-12.08L170.32-12.08 170.32-10.18 153.74-10.18Q153.74-8.86 154.34-7.56 154.94-6.25 156.03-5.16 157.11-4.08 158.88-3.39 160.65-2.71 162.8-2.71L162.8-2.71Q165.34-2.71 168.3-3.59L168.3-3.59 169-0.85Q165.07 0.49 161.29 0.49L161.29 0.49Q158.63 0.49 156.56-0.22 154.5-0.93 153.24-2.06 151.99-3.2 151.18-4.79 150.38-6.37 150.07-7.95 149.77-9.52 149.77-11.28L149.77-11.28Q149.77-13.99 150.42-16.24 151.08-18.48 152.21-20.01 153.33-21.53 154.83-22.58 156.33-23.63 157.98-24.11 159.63-24.58 161.36-24.58ZM160.51-21.12L160.51-21.12Q158.36-21.12 156.81-19.93 155.26-18.75 154.55-16.99 153.84-15.23 153.84-13.21L153.84-13.21 166.44-13.21Q166.44-21.12 160.51-21.12ZM180.7-24.12L181.45-22.31Q184.5-24.58 188.19-24.58L188.19-24.58Q190.73-24.58 192.8-23.63L192.8-23.63 191.58-20.43Q189.68-21.17 187.63-21.17L187.63-21.17Q184.58-21.17 181.89-19.48L181.89-19.48 181.89 0 177.89 0 177.89-24.12 180.7-24.12ZM204.35 1.2L194.27-24.12 198.66-24.12 206.38-3.66 213.55-24.12 217.7-24.12 203.79 12.96 199.52 12.96 204.35 1.2ZM247.51-24.58L247.51-24.58Q252.51-24.58 255.75-21.39 258.98-18.19 258.98-12.55L258.98-12.55Q258.98-6.57 255.68-3.04 252.37 0.49 247.12 0.49L247.12 0.49Q242.11 0.49 238.94-2.82 235.77-6.13 235.77-11.79L235.77-11.79Q235.77-17.63 239-21.11 242.24-24.58 247.51-24.58ZM247.17-21.17L247.17-21.17Q244.16-21.17 241.92-18.85 239.67-16.53 239.67-12.48L239.67-12.48Q239.67-8.45 241.87-5.69 244.07-2.93 247.56-2.93L247.56-2.93Q250.78-2.93 252.93-5.37 255.08-7.81 255.08-11.74L255.08-11.74Q255.08-13.99 254.38-15.82 253.69-17.65 252.55-18.8 251.42-19.95 250.02-20.56 248.63-21.17 247.17-21.17ZM272.19 0L263.62-24.12 267.89-24.12 274.44-3.88 280.64-24.12 284.57-24.12 291.01-3.91 297.56-24.12 301.83-24.12 293.01 0 288.99 0 282.57-19.56 276.22 0 272.19 0ZM307.68 0L307.68-24.12 310.49-24.12 311.37-22.07Q316.03-24.61 319.87-24.61L319.87-24.61Q321.85-24.61 323.31-23.99 324.77-23.36 325.58-22.42 326.39-21.48 326.86-20.06 327.34-18.63 327.47-17.33 327.61-16.04 327.61-14.38L327.61-14.38 327.61 0 323.6 0 323.6-14.65Q323.6-21 318.13-21L318.13-21Q315.3-21 311.69-19.12L311.69-19.12 311.69 0 307.68 0ZM367.3-35.06L367.3-35.06Q374.6-35.06 379.07-30.22 383.53-25.39 383.53-17.36L383.53-17.36Q383.53-10.06 379.87-5.37L379.87-5.37 384.29-1 382.05 1.37 377.48-2.95Q373.28 0.37 367.35 0.37L367.35 0.37Q363.91 0.37 360.93-0.83 357.95-2.03 355.71-4.22 353.48-6.42 352.2-9.77 350.92-13.11 350.92-17.21L350.92-17.21Q350.92-21.26 352.16-24.62 353.41-27.98 355.58-30.26 357.75-32.54 360.77-33.8 363.78-35.06 367.3-35.06ZM366.96-31.42L366.96-31.42Q364.81-31.42 362.78-30.62 360.76-29.81 359.02-28.21 357.29-26.61 356.24-23.89 355.19-21.17 355.19-17.68L355.19-17.68Q355.19-14.26 356.22-11.47 357.24-8.69 359-6.92 360.76-5.15 363.03-4.21 365.3-3.27 367.84-3.27L367.84-3.27Q371.82-3.27 374.75-5.54L374.75-5.54 367.05-12.82 369.62-15.45 377.09-8.11Q379.26-11.45 379.26-16.72L379.26-16.72Q379.26-20.02 378.46-22.64 377.65-25.27 376.39-26.88 375.14-28.49 373.46-29.55 371.79-30.62 370.19-31.02 368.59-31.42 366.96-31.42ZM417.3-25.17L417.3-25.17Q417.3-23.44 416.88-21.88 416.47-20.31 415.59-18.9 414.71-17.48 413.16-16.44 411.61-15.41 409.53-14.92L409.53-14.92 419.32 0 414.68 0 405.28-14.45 398.57-14.45 398.57 0 394.4 0 394.4-34.69 407.14-34.69Q408.02-34.69 408.73-34.64 409.44-34.59 410.55-34.39 411.66-34.18 412.51-33.83 413.37-33.47 414.31-32.75 415.25-32.03 415.87-31.05 416.49-30.08 416.89-28.56 417.3-27.05 417.3-25.17ZM398.57-31.05L398.57-18.12 404.55-18.12Q405.8-18.12 406.75-18.2 407.7-18.29 408.98-18.66 410.27-19.04 411.11-19.71 411.95-20.39 412.55-21.67 413.15-22.95 413.15-24.71L413.15-24.71Q413.15-25.95 412.83-26.95 412.51-27.95 412.02-28.6 411.53-29.25 410.83-29.72 410.12-30.2 409.46-30.44 408.8-30.69 407.99-30.83 407.19-30.98 406.66-31.02 406.14-31.05 405.55-31.05L405.55-31.05 398.57-31.05Z" opacity="1" transform="matrix(1,0,0,1,0,0)" fill="#010c80" class="undefined-text-1" data-fill-palette-color="secondary" id="text-1"></path></svg></g></svg></g></svg></g></svg></g><g transform="matrix(1,0,0,1,0,14.62004370357873)"><svg viewBox="0 0 241.32997028251606 241.4496776090451" height="241.4496776090451" width="241.32997028251606"><g><svg xmlns:dc="http://purl.org/dc/elements/1.1/" xmlns:cc="http://creativecommons.org/ns#" xmlns:rdf="http://www.w3.org/1999/02/22-rdf-syntax-ns#" xmlns:svg="http://www.w3.org/2000/svg" xmlns="http://www.w3.org/2000/svg" xmlns:sodipodi="http://sodipodi.sourceforge.net/DTD/sodipodi-0.dtd" xmlns:inkscape="http://www.inkscape.org/namespaces/inkscape" preserveAspectRatio="xMidYMid" viewBox="0 0 63 63.03125" version="1.1" x="0" y="0" height="241.4496776090451" width="241.32997028251606" class="icon-icon-0" data-fill-palette-color="accent" id="icon-0"><path d="M9.5 0C4.253 0 0 4.25 0 9.5L0 53.531C0 58.781 4.253 63.031 9.5 63.031L53.5 63.031C58.747 63.031 63 58.781 63 53.531L63 9.5C63 4.25 58.747 0 53.5 0L9.5 0zM10 3L17 3 17 60.031 10 60.031 10 3zM20 3L35 3 35 60.031 20 60.031 20 3zM38 3L53.5 3C57.09 3 60 5.908 60 9.5L60 53.531C60 57.123 57.09 60.031 53.5 60.031L38 60.031 38 3zM6.969 3.5C6.978 3.496 6.991 3.504 7 3.5L7 59.531C4.653 58.55 3 56.236 3 53.531L3 9.5C3 6.806 4.636 4.487 6.969 3.5z" fill="#010c80" fill-rule="evenodd" data-fill-palette-color="accent"></path></svg></g></svg></g></svg></g><defs></defs></svg><rect width="395.52" height="145.25946535473562" fill="none" stroke="none" visibility="hidden"></rect></g></svg></g></svg>